<svg xmlns="http://www.w3.org/2000/svg" width="512" height="512" viewBox="0 0 512 512">
  <g fill="none" fill-rule="evenodd">
    <circle cx="256" cy="256" r="256" fill="#FFE8A2"/>
    <path fill="#3B3B3B" fill-rule="nonzero" d="M255.440573,123 C226.449659,123 202.805437,146.698595 202.805437,175.756148 L202.805437,185.613217 C190.314785,187.768605 180.643275,198.761102 180.643275,211.852459 L180.643275,236.286885 L145.183816,215.600922 L145.183816,180.754098 C145.238812,178.195182 144.190282,175.736763 142.306755,174.008443 C140.423229,172.280123 137.887641,171.449764 135.349356,171.73002 C130.782213,172.233059 127.355268,176.149963 127.454086,180.754098 L127.454086,220.737705 C127.475229,223.890917 129.162009,226.796735 131.886519,228.373463 L180.643275,256.834016 L180.643275,269.606557 L105.291924,269.606557 C105.015049,269.593536 104.737718,269.593536 104.460843,269.606557 C101.29328,269.754742 98.4452821,271.585649 96.9899134,274.409433 C95.5345446,277.233216 95.6929714,280.620758 97.4055019,283.295705 C99.1180324,285.970652 102.12442,287.526504 105.291924,287.377049 L180.643275,287.377049 L180.643275,304.453381 L131.886519,332.913934 C129.119089,334.515429 127.425667,337.485729 127.454086,340.688525 L127.454086,380.672131 C127.408873,383.87647 129.088548,386.856985 131.849932,388.472379 C134.611316,390.087774 138.026586,390.087774 140.78797,388.472379 C143.549354,386.856985 145.229029,383.87647 145.183816,380.672131 L145.183816,345.686475 L182.998005,323.612193 C191.222277,356.388079 220.754927,380.672131 255.994627,380.672131 C291.234326,380.672131 320.766976,356.388079 328.991248,323.612193 L366.805437,345.686475 L366.805437,380.672131 C366.760224,383.87647 368.4399,386.856985 371.201283,388.472379 C373.962667,390.087774 377.377938,390.087774 380.139321,388.472379 C382.900705,386.856985 384.580381,383.87647 384.535167,380.672131 L384.535167,340.688525 C384.563586,337.485729 382.870165,334.515429 380.102735,332.913934 L331.345978,304.453381 L331.345978,287.377049 L406.697329,287.377049 C409.894318,287.422367 412.867997,285.738829 414.479685,282.971097 C416.091374,280.203365 416.091374,276.780242 414.479685,274.01251 C412.867997,271.244777 409.894318,269.56124 406.697329,269.606557 L331.345978,269.606557 L331.345978,256.834016 L380.102735,228.373463 C382.827245,226.796735 384.514024,223.890917 384.535167,220.737705 L384.535167,180.754098 C384.590163,178.195182 383.541633,175.736763 381.658107,174.008443 C379.77458,172.280123 377.238993,171.449764 374.700708,171.73002 C370.133564,172.233059 366.706619,176.149963 366.805437,180.754098 L366.805437,215.600922 L331.345978,236.286885 L331.345978,211.852459 C331.345978,198.761102 321.674468,187.768605 309.183816,185.613217 L309.183816,175.756148 C309.183816,146.698595 285.539595,123 256.548681,123 L255.440573,123 Z M255.440573,140.770492 L256.548681,140.770492 C275.999413,140.770492 291.454086,156.260719 291.454086,175.756148 L291.454086,185.196721 L220.535167,185.196721 L220.535167,175.756148 C220.535167,156.260719 235.98984,140.770492 255.440573,140.770492 Z M207.23787,202.967213 L247.129762,202.967213 L247.129762,362.20748 C219.356309,357.979786 198.373005,334.259023 198.373005,305.147541 L198.373005,211.852459 C198.373005,206.776362 202.173399,202.967213 207.23787,202.967213 Z M264.859492,202.967213 L304.751383,202.967213 C309.815854,202.967213 313.616248,206.776362 313.616248,211.852459 L313.616248,305.147541 C313.616248,334.259023 292.632945,357.979786 264.859492,362.20748 L264.859492,202.967213 Z"/>
  </g>
</svg>
